<svg width="26" height="26" viewBox="0 0 26 26" fill="none" xmlns="http://www.w3.org/2000/svg">
<path d="M17.9584 10.6667C16.8326 10.6667 15.9167 11.5849 15.9167 12.7084C15.9167 13.8319 16.8314 14.75 17.9584 14.75C19.0831 14.75 20.0001 13.833 20.0001 12.7084C20.0001 11.5837 19.0831 10.6667 17.9584 10.6667ZM17.9584 13.5834C17.4754 13.5834 17.0834 13.1914 17.0834 12.7084C17.0834 12.2265 17.4766 11.8334 17.9584 11.8334C18.4402 11.8334 18.8334 12.2254 18.8334 12.7084C18.8334 13.1902 18.4414 13.5834 17.9584 13.5834ZM12.7084 10.6667C11.5814 10.6667 10.6667 11.5849 10.6667 12.7084C10.6667 13.8319 11.5826 14.75 12.7084 14.75C13.8342 14.75 14.7501 13.833 14.7501 12.7084C14.7501 11.5837 13.8354 10.6667 12.7084 10.6667ZM12.7084 13.5834C12.2254 13.5834 11.8334 13.1914 11.8334 12.7084C11.8334 12.2265 12.2266 11.8334 12.7084 11.8334C13.1902 11.8334 13.5834 12.2254 13.5834 12.7084C13.5834 13.1902 13.1914 13.5834 12.7084 13.5834ZM7.45842 10.6667C6.33258 10.6667 5.41675 11.5849 5.41675 12.7084C5.41675 13.8319 6.33258 14.75 7.45842 14.75C8.58308 14.75 9.50008 13.833 9.50008 12.7084C9.50008 11.5837 8.58191 10.6667 7.45842 10.6667ZM7.45842 13.5834C6.97542 13.5834 6.58342 13.1914 6.58342 12.7084C6.58342 12.2265 6.97658 11.8334 7.45842 11.8334C7.94025 11.8334 8.33342 12.2254 8.33342 12.7084C8.33342 13.1902 7.94142 13.5834 7.45842 13.5834Z" fill="black"/>
<path d="M12.7084 25.25C5.79242 25.25 0.166748 19.6244 0.166748 12.7084C0.166748 5.79235 5.79242 0.166687 12.7084 0.166687C19.6244 0.166687 25.2501 5.79235 25.2501 12.7084C25.2501 19.6244 19.6244 25.25 12.7084 25.25ZM12.7084 1.91669C6.75842 1.91669 1.91675 6.75835 1.91675 12.7084C1.91675 18.6584 6.75842 23.5 12.7084 23.5C18.6584 23.5 23.5001 18.6584 23.5001 12.7084C23.5001 6.75835 18.6584 1.91669 12.7084 1.91669Z" fill="black"/>
</svg>
