<svg width="20" height="25" viewBox="0 0 20 25" fill="none" xmlns="http://www.w3.org/2000/svg">
<path d="M10.2428 12.1867C11.8236 12.1867 13.5935 12.0116 14.7228 10.7213C15.6725 9.63631 15.9805 7.95865 15.6631 5.59731C15.2198 2.30148 13.1933 0.333313 10.2428 0.333313C7.29231 0.333313 5.2658 2.30148 4.82247 5.59965C4.50514 7.95865 4.81315 9.63631 5.76281 10.7213C6.89215 12.0128 8.66197 12.1867 10.2428 12.1867ZM6.55614 5.83064C6.74514 4.43064 7.47431 2.08331 10.2428 2.08331C13.0113 2.08331 13.7405 4.43181 13.9295 5.83064C14.171 7.63898 13.996 8.89548 13.4045 9.56981C12.8736 10.1765 11.9275 10.4367 10.2428 10.4367C8.55814 10.4367 7.61198 10.1765 7.08114 9.56981C6.48964 8.89548 6.31464 7.63781 6.55614 5.83064ZM19.9028 20.8433C18.8796 16.7297 14.9071 13.855 10.2428 13.855C5.57848 13.855 1.60598 16.7297 0.58281 20.8433C0.382143 21.6507 0.550139 22.4767 1.04364 23.1067C1.51964 23.7133 2.25697 24.0633 3.06547 24.0633H17.4201C18.2286 24.0633 18.966 23.7133 19.442 23.1067C19.9366 22.4767 20.1035 21.6518 19.9016 20.8433H19.9028ZM18.0641 22.0286C17.9171 22.2153 17.6955 22.3157 17.4201 22.3157H3.06547C2.79131 22.3157 2.56847 22.2165 2.42147 22.0286C2.26164 21.8256 2.21148 21.548 2.28148 21.2656C3.10981 17.9348 6.38464 15.6073 10.2428 15.6073C14.101 15.6073 17.3758 17.9336 18.2041 21.2656C18.2741 21.548 18.224 21.8256 18.0641 22.0286Z" fill="black"/>
</svg>
