<svg width="24" height="24" viewBox="0 0 24 24" fill="none" xmlns="http://www.w3.org/2000/svg">
<path d="M23.314 17.2943C23.2907 17.2757 20.8173 15.381 20.8605 10.2593C20.8838 7.30533 19.9131 4.68032 18.1223 2.86848C16.5181 1.24332 14.3458 0.34498 12.0067 0.333313H11.9915C9.65348 0.34498 7.48115 1.24333 5.87581 2.86966C4.08615 4.68149 3.11315 7.30533 3.13882 10.2593C3.18199 15.311 0.782148 17.2208 0.686481 17.2943C0.383148 17.5195 0.259482 17.9127 0.377315 18.272C0.496315 18.6313 0.832304 18.8728 1.20797 18.8728H6.94799C7.06699 21.5678 9.2778 23.7262 11.9996 23.7262C14.7215 23.7262 16.93 21.5678 17.0478 18.8728H22.7901C23.1658 18.8728 23.5018 18.6325 23.6185 18.2732C23.7386 17.915 23.615 17.5206 23.3117 17.2955L23.314 17.2943ZM12.0008 21.9727C10.245 21.9727 8.81581 20.5995 8.70148 18.8717H15.3001C15.1835 20.5983 13.7566 21.975 12.0008 21.975V21.9727ZM3.11082 17.1217C3.97415 15.801 4.91682 13.589 4.88882 10.243C4.86782 7.72298 5.64015 5.59732 7.12065 4.09815C8.39581 2.80665 10.1306 2.09148 12.0008 2.08331C13.871 2.09265 15.6023 2.80666 16.8775 4.09933C18.3591 5.59849 19.1326 7.72299 19.1116 10.2442C19.0836 13.5902 20.0275 15.8033 20.8908 17.1228H3.11082V17.1217Z" fill="black"/>
</svg>
