<svg width="24" height="24" viewBox="0 0 24 24" fill="none" xmlns="http://www.w3.org/2000/svg">
<path d="M22.2083 6.43374H17.6233L18.0573 1.44974C18.0993 0.969073 17.7423 0.545577 17.2616 0.502411C16.7751 0.467411 16.3562 0.817409 16.3142 1.29924L15.8674 6.43257H8.49409L8.92575 1.4509C8.96892 0.969064 8.61075 0.545577 8.13242 0.502411C7.64242 0.467411 7.22592 0.817409 7.18392 1.29924L6.73825 6.43257H2.12058C1.63758 6.43257 1.24558 6.82574 1.24558 7.30757C1.24558 7.7894 1.63758 8.18257 2.12058 8.18257H6.58659L5.94492 15.5641H1.20825C0.725252 15.5641 0.333252 15.9561 0.333252 16.4391C0.333252 16.9221 0.725252 17.3141 1.20825 17.3141H5.79325L5.35925 22.2981C5.31725 22.7787 5.67425 23.2022 6.15492 23.2454L6.23192 23.2489C6.68108 23.2489 7.06259 22.9047 7.10225 22.4486L7.54908 17.3152H14.9224L14.4908 22.2969C14.4488 22.7787 14.8058 23.2022 15.2864 23.2454L15.3634 23.2489C15.8126 23.2489 16.1941 22.9047 16.2337 22.4486L16.6794 17.3152H21.2959C21.7778 17.3152 22.1709 16.9221 22.1709 16.4402C22.1709 15.9584 21.7778 15.5652 21.2959 15.5652H16.8299L17.4716 8.18374H22.2083C22.6913 8.18374 23.0833 7.79174 23.0833 7.30874C23.0833 6.82574 22.6913 6.43374 22.2083 6.43374ZM15.0741 15.5641H7.70075L8.34242 8.18374H15.7157L15.0741 15.5641Z" fill="black"/>
</svg>
