<svg width="24" height="22" viewBox="0 0 24 22" fill="none" xmlns="http://www.w3.org/2000/svg">
<path d="M20.4583 0.5H3.54159C1.77175 0.5 0.333252 1.93967 0.333252 3.71067V18.2882C0.333252 20.0592 1.77175 21.5 3.54159 21.5H20.4583C22.2281 21.5 23.6666 20.0592 23.6666 18.2882V3.71067C23.6666 1.93967 22.2281 0.5 20.4583 0.5ZM3.54159 2.25H20.4583C21.2633 2.25 21.9166 2.90333 21.9166 3.70833V4.54132L12.5249 10.8028C12.2064 11.0128 11.7946 11.0152 11.4749 10.8005L2.08325 4.54132V3.70833C2.08325 2.90333 2.73659 2.25 3.54159 2.25ZM20.4583 19.7477H3.54159C2.73659 19.7477 2.08325 19.0943 2.08325 18.2893V6.59233L10.5299 12.2273C10.9768 12.526 11.4889 12.6753 11.9999 12.6753C12.5133 12.6753 13.0231 12.526 13.4699 12.2285L21.9166 6.59349V18.2858C21.9166 19.0908 21.2633 19.7442 20.4583 19.7442V19.7477Z" fill="black"/>
</svg>
