<svg width="27" height="24" viewBox="0 0 27 24" fill="none" xmlns="http://www.w3.org/2000/svg">
<path d="M25.4601 6.83515L13.671 0.473313C13.3245 0.286646 12.908 0.286646 12.5626 0.473313L0.779314 6.83515C0.212311 7.14315 0.00114466 7.85013 0.306814 8.41714C0.516814 8.80797 0.919314 9.02965 1.33348 9.02965C1.52015 9.02965 1.71148 8.9853 1.88765 8.88963L2.74398 8.42764L4.59898 21.5526C4.85098 22.969 6.12731 23.9583 7.70231 23.9583H18.5313C20.1063 23.9583 21.3826 22.969 21.637 21.5223L23.4896 8.42648L24.3495 8.89081C24.9153 9.19764 25.6235 8.98647 25.9291 8.41947C26.236 7.85247 26.0225 7.14431 25.4578 6.83864L25.4601 6.83515ZM13.1168 16.2676C11.0226 16.2676 9.32515 14.5701 9.32515 12.476C9.32515 10.3818 11.0226 8.68431 13.1168 8.68431C15.211 8.68431 16.9085 10.3818 16.9085 12.476C16.9085 14.5701 15.211 16.2676 13.1168 16.2676Z" fill="black"/>
</svg>
